<mxfile host="app.diagrams.net" modified="2021-12-17T22:39:48.034Z" agent="5.0 (X11)" etag="-5cplczpCn7Tj93rkRM5" version="16.0.0" type="github" pages="4">
  <diagram id="49ln73r_cyLWRRV5bPis" name="Class">
    <mxGraphModel dx="643" dy="364" grid="1" gridSize="10" guides="1" tooltips="1" connect="1" arrows="1" fold="1" page="1" pageScale="1" pageWidth="850" pageHeight="1100" math="0" shadow="0">
      <root>
        <mxCell id="0" />
        <mxCell id="1" parent="0" />
        <mxCell id="iviXQ5-8OA8YKHVUGETv-1" value="CCommunication" style="rounded=0;whiteSpace=wrap;html=1;sketch=0;fontColor=#143642;strokeColor=#0F8B8D;fillColor=#FAE5C7;fontStyle=1" parent="1" vertex="1">
          <mxGeometry x="320" y="110" width="210" height="30" as="geometry" />
        </mxCell>
        <mxCell id="iviXQ5-8OA8YKHVUGETv-2" value="" style="endArrow=block;endSize=16;endFill=0;html=1;rounded=0;exitX=0.5;exitY=0;exitDx=0;exitDy=0;entryX=0.5;entryY=1;entryDx=0;entryDy=0;" parent="1" target="iviXQ5-8OA8YKHVUGETv-1" edge="1">
          <mxGeometry width="160" relative="1" as="geometry">
            <mxPoint x="425" y="190" as="sourcePoint" />
            <mxPoint x="615" y="205" as="targetPoint" />
          </mxGeometry>
        </mxCell>
        <mxCell id="iviXQ5-8OA8YKHVUGETv-4" value="CTCPclient" style="swimlane;fontStyle=1;align=center;verticalAlign=top;childLayout=stackLayout;horizontal=1;startSize=26;horizontalStack=0;resizeParent=1;resizeParentMax=0;resizeLast=0;collapsible=1;marginBottom=0;fillColor=#FAE5C7;strokeColor=#0F8B8D;fontColor=#143642;" parent="1" vertex="1">
          <mxGeometry x="320" y="188" width="210" height="310" as="geometry" />
        </mxCell>
        <mxCell id="iviXQ5-8OA8YKHVUGETv-5" value="- sockfd : int&#xa;- host : string&#xa;- port : int&#xa;&#xa;" style="text;strokeColor=none;fillColor=none;align=left;verticalAlign=top;spacingLeft=4;spacingRight=4;overflow=hidden;rotatable=0;points=[[0,0.5],[1,0.5]];portConstraint=eastwest;fontColor=#143642;" parent="iviXQ5-8OA8YKHVUGETv-4" vertex="1">
          <mxGeometry y="26" width="210" height="54" as="geometry" />
        </mxCell>
        <mxCell id="iviXQ5-8OA8YKHVUGETv-6" value="" style="line;strokeWidth=1;fillColor=none;align=left;verticalAlign=middle;spacingTop=-1;spacingLeft=3;spacingRight=3;rotatable=0;labelPosition=right;points=[];portConstraint=eastwest;labelBackgroundColor=#DAD2D8;strokeColor=#0F8B8D;fontColor=#143642;" parent="iviXQ5-8OA8YKHVUGETv-4" vertex="1">
          <mxGeometry y="80" width="210" height="8" as="geometry" />
        </mxCell>
        <mxCell id="iviXQ5-8OA8YKHVUGETv-7" value="+ TCPclient(IN host : string, port : int)&#xa;+ ~TCPclient(void)&#xa;&#xa;# recvFunc(void) string&#xa;# sendFunc(IN msg : string) int&#xa;+ getHost(void) string const&#xa;+ getPort(void) int const&#xa; " style="text;strokeColor=none;fillColor=none;align=left;verticalAlign=top;spacingLeft=4;spacingRight=4;overflow=hidden;rotatable=0;points=[[0,0.5],[1,0.5]];portConstraint=eastwest;fontColor=#143642;" parent="iviXQ5-8OA8YKHVUGETv-4" vertex="1">
          <mxGeometry y="88" width="210" height="222" as="geometry" />
        </mxCell>
        <mxCell id="b_hkYeJWymWHCnvEFT7V-1" value="&lt;div style=&quot;font-size: 11px&quot;&gt;&lt;font style=&quot;font-size: 11px&quot; color=&quot;#8A8A8A&quot;&gt;^# tSend(void*) void&lt;br&gt;&lt;/font&gt;&lt;/div&gt;&lt;div style=&quot;font-size: 11px&quot;&gt;&lt;font style=&quot;font-size: 11px&quot; color=&quot;#8A8A8A&quot;&gt;^+ getStatus(void) ConnStatus const&lt;br style=&quot;font-size: 11px&quot;&gt;&lt;/font&gt;&lt;/div&gt;&lt;div style=&quot;font-size: 11px&quot;&gt;&lt;font style=&quot;font-size: 11px&quot; color=&quot;#8A8A8A&quot;&gt;^+ init(IN int tprio) void&lt;/font&gt;&lt;/div&gt;&lt;div style=&quot;font-size: 11px&quot;&gt;&lt;font style=&quot;font-size: 11px&quot; color=&quot;#8A8A8A&quot;&gt;^+ run(void) void&lt;br&gt;&lt;/font&gt;&lt;/div&gt;&lt;font style=&quot;font-size: 11px&quot; color=&quot;#8A8A8A&quot;&gt;^+ push(IN msg : string) int&lt;br style=&quot;font-size: 11px&quot;&gt;^+ send(IN msg : string) int&lt;br style=&quot;font-size: 11px&quot;&gt;^+ recv(void) string&lt;/font&gt;" style="text;html=1;align=left;verticalAlign=middle;resizable=0;points=[];autosize=1;strokeColor=none;fillColor=none;opacity=10;fontSize=11;" parent="1" vertex="1">
          <mxGeometry x="325" y="385" width="210" height="110" as="geometry" />
        </mxCell>
      </root>
    </mxGraphModel>
  </diagram>
  <diagram id="hn6dhvuk8s2SpI-NVS4P" name="Constructor">
    <mxGraphModel dx="771" dy="437" grid="1" gridSize="10" guides="1" tooltips="1" connect="1" arrows="1" fold="1" page="1" pageScale="1" pageWidth="850" pageHeight="1100" math="0" shadow="0">
      <root>
        <mxCell id="hXIcu-qpM7IXTfJRX9DU-0" />
        <mxCell id="hXIcu-qpM7IXTfJRX9DU-1" parent="hXIcu-qpM7IXTfJRX9DU-0" />
        <mxCell id="hXIcu-qpM7IXTfJRX9DU-2" style="edgeStyle=orthogonalEdgeStyle;curved=0;rounded=1;sketch=0;orthogonalLoop=1;jettySize=auto;html=1;exitX=0.5;exitY=1;exitDx=0;exitDy=0;entryX=0.5;entryY=0;entryDx=0;entryDy=0;fontColor=#143642;strokeColor=#A8201A;fillColor=#FAE5C7;" parent="hXIcu-qpM7IXTfJRX9DU-1" source="hXIcu-qpM7IXTfJRX9DU-3" edge="1">
          <mxGeometry relative="1" as="geometry">
            <mxPoint x="353" y="140" as="targetPoint" />
          </mxGeometry>
        </mxCell>
        <mxCell id="hXIcu-qpM7IXTfJRX9DU-3" value="&lt;div&gt;TCPclient&lt;/div&gt;&lt;div&gt;&lt;br&gt;&lt;/div&gt;&lt;div&gt;IN: &lt;span style=&quot;font-weight: normal&quot;&gt;&lt;i&gt;host&lt;/i&gt;, &lt;i&gt;port&lt;/i&gt;&lt;/span&gt;&lt;br&gt;&lt;/div&gt;" style="ellipse;whiteSpace=wrap;html=1;fillColor=#FAE5C7;strokeColor=#0F8B8D;fontColor=#143642;fontStyle=1" parent="hXIcu-qpM7IXTfJRX9DU-1" vertex="1">
          <mxGeometry x="290" y="50" width="125.5" height="50" as="geometry" />
        </mxCell>
        <mxCell id="hXIcu-qpM7IXTfJRX9DU-4" value="Returns &lt;i&gt;sockfd&lt;/i&gt;" style="edgeStyle=orthogonalEdgeStyle;rounded=1;orthogonalLoop=1;jettySize=auto;html=1;exitX=0.5;exitY=1;exitDx=0;exitDy=0;entryX=0.5;entryY=0;entryDx=0;entryDy=0;fontSize=11;strokeColor=#A8201A;" parent="hXIcu-qpM7IXTfJRX9DU-1" target="hXIcu-qpM7IXTfJRX9DU-8" edge="1">
          <mxGeometry x="0.0001" relative="1" as="geometry">
            <mxPoint x="353" y="170" as="sourcePoint" />
            <mxPoint x="352.75" y="210" as="targetPoint" />
            <Array as="points">
              <mxPoint x="353" y="195" />
              <mxPoint x="353" y="195" />
            </Array>
            <mxPoint as="offset" />
          </mxGeometry>
        </mxCell>
        <mxCell id="hXIcu-qpM7IXTfJRX9DU-5" value="end" style="ellipse;whiteSpace=wrap;html=1;fillColor=#FAE5C7;strokeColor=#0F8B8D;fontColor=#143642;fontStyle=1" parent="hXIcu-qpM7IXTfJRX9DU-1" vertex="1">
          <mxGeometry x="328.5" y="520" width="48" height="30" as="geometry" />
        </mxCell>
        <mxCell id="hXIcu-qpM7IXTfJRX9DU-6" value="socket()" style="shape=process;whiteSpace=wrap;html=1;backgroundOutline=1;rounded=0;sketch=0;fontColor=#143642;strokeColor=#0F8B8D;fillColor=#FAE5C7;fontStyle=1" parent="hXIcu-qpM7IXTfJRX9DU-1" vertex="1">
          <mxGeometry x="278" y="140" width="150" height="40" as="geometry" />
        </mxCell>
        <mxCell id="hXIcu-qpM7IXTfJRX9DU-7" style="edgeStyle=orthogonalEdgeStyle;rounded=1;orthogonalLoop=1;jettySize=auto;html=1;exitX=0.5;exitY=1;exitDx=0;exitDy=0;entryX=0.5;entryY=0;entryDx=0;entryDy=0;fontSize=11;strokeColor=#A8201A;" parent="hXIcu-qpM7IXTfJRX9DU-1" source="hXIcu-qpM7IXTfJRX9DU-8" target="hXIcu-qpM7IXTfJRX9DU-17" edge="1">
          <mxGeometry relative="1" as="geometry" />
        </mxCell>
        <mxCell id="hXIcu-qpM7IXTfJRX9DU-8" value="Create and initialize socket address" style="rounded=0;whiteSpace=wrap;html=1;sketch=0;fontColor=#143642;strokeColor=#0F8B8D;fillColor=#FAE5C7;" parent="hXIcu-qpM7IXTfJRX9DU-1" vertex="1">
          <mxGeometry x="278.5" y="220" width="149.5" height="40" as="geometry" />
        </mxCell>
        <mxCell id="hXIcu-qpM7IXTfJRX9DU-9" style="edgeStyle=orthogonalEdgeStyle;rounded=1;orthogonalLoop=1;jettySize=auto;html=1;exitX=0.5;exitY=1;exitDx=0;exitDy=0;entryX=0.5;entryY=0;entryDx=0;entryDy=0;fontSize=11;strokeColor=#A8201A;" parent="hXIcu-qpM7IXTfJRX9DU-1" source="hXIcu-qpM7IXTfJRX9DU-10" target="hXIcu-qpM7IXTfJRX9DU-15" edge="1">
          <mxGeometry relative="1" as="geometry" />
        </mxCell>
        <mxCell id="hXIcu-qpM7IXTfJRX9DU-10" value="connect(&lt;i&gt;&lt;span style=&quot;font-weight: normal&quot;&gt;sockfd&lt;/span&gt;&lt;/i&gt;)" style="shape=process;whiteSpace=wrap;html=1;backgroundOutline=1;rounded=0;sketch=0;fontColor=#143642;strokeColor=#0F8B8D;fillColor=#FAE5C7;fontStyle=1" parent="hXIcu-qpM7IXTfJRX9DU-1" vertex="1">
          <mxGeometry x="277.5" y="320" width="150" height="40" as="geometry" />
        </mxCell>
        <mxCell id="hXIcu-qpM7IXTfJRX9DU-11" style="edgeStyle=orthogonalEdgeStyle;rounded=1;orthogonalLoop=1;jettySize=auto;html=1;exitX=1;exitY=0.5;exitDx=0;exitDy=0;fontSize=11;strokeColor=#A8201A;entryX=1;entryY=0.5;entryDx=0;entryDy=0;" parent="hXIcu-qpM7IXTfJRX9DU-1" source="hXIcu-qpM7IXTfJRX9DU-15" target="hXIcu-qpM7IXTfJRX9DU-17" edge="1">
          <mxGeometry relative="1" as="geometry">
            <mxPoint x="437.5" y="250" as="targetPoint" />
            <Array as="points">
              <mxPoint x="450" y="425" />
              <mxPoint x="450" y="290" />
            </Array>
          </mxGeometry>
        </mxCell>
        <mxCell id="hXIcu-qpM7IXTfJRX9DU-12" value="No" style="edgeLabel;html=1;align=center;verticalAlign=middle;resizable=0;points=[];fontSize=11;" parent="hXIcu-qpM7IXTfJRX9DU-11" vertex="1" connectable="0">
          <mxGeometry x="-0.9147" y="2" relative="1" as="geometry">
            <mxPoint as="offset" />
          </mxGeometry>
        </mxCell>
        <mxCell id="hXIcu-qpM7IXTfJRX9DU-14" value="Yes" style="edgeStyle=orthogonalEdgeStyle;rounded=1;orthogonalLoop=1;jettySize=auto;html=1;exitX=0;exitY=0.5;exitDx=0;exitDy=0;entryX=0.5;entryY=0;entryDx=0;entryDy=0;fontSize=11;strokeColor=#A8201A;" parent="hXIcu-qpM7IXTfJRX9DU-1" source="hXIcu-qpM7IXTfJRX9DU-15" target="hXIcu-qpM7IXTfJRX9DU-5" edge="1">
          <mxGeometry x="-0.8532" relative="1" as="geometry">
            <mxPoint x="280" y="430" as="targetPoint" />
            <Array as="points">
              <mxPoint x="280" y="425" />
              <mxPoint x="280" y="495" />
              <mxPoint x="352" y="495" />
            </Array>
            <mxPoint as="offset" />
          </mxGeometry>
        </mxCell>
        <mxCell id="hXIcu-qpM7IXTfJRX9DU-15" value="Connected to server ?" style="rhombus;whiteSpace=wrap;html=1;rounded=0;sketch=0;fontColor=#143642;strokeColor=#0F8B8D;fillColor=#FAE5C7;" parent="hXIcu-qpM7IXTfJRX9DU-1" vertex="1">
          <mxGeometry x="303.5" y="380" width="98" height="90" as="geometry" />
        </mxCell>
        <mxCell id="hXIcu-qpM7IXTfJRX9DU-16" style="edgeStyle=orthogonalEdgeStyle;rounded=1;orthogonalLoop=1;jettySize=auto;html=1;exitX=0.5;exitY=1;exitDx=0;exitDy=0;entryX=0.5;entryY=0;entryDx=0;entryDy=0;fontSize=11;strokeColor=#A8201A;" parent="hXIcu-qpM7IXTfJRX9DU-1" source="hXIcu-qpM7IXTfJRX9DU-17" target="hXIcu-qpM7IXTfJRX9DU-10" edge="1">
          <mxGeometry relative="1" as="geometry" />
        </mxCell>
        <mxCell id="hXIcu-qpM7IXTfJRX9DU-17" value="" style="ellipse;whiteSpace=wrap;html=1;aspect=fixed;rounded=0;sketch=0;fontColor=#143642;strokeColor=#0F8B8D;fillColor=#FAE5C7;" parent="hXIcu-qpM7IXTfJRX9DU-1" vertex="1">
          <mxGeometry x="343.25" y="280" width="20" height="20" as="geometry" />
        </mxCell>
      </root>
    </mxGraphModel>
  </diagram>
  <diagram id="B236Pj5c0BSej4OPTCYv" name="recvFunc">
    <mxGraphModel dx="450" dy="255" grid="1" gridSize="10" guides="1" tooltips="1" connect="1" arrows="1" fold="1" page="1" pageScale="1" pageWidth="850" pageHeight="1100" math="0" shadow="0">
      <root>
        <mxCell id="ajOKWsYXh7jkw-FmMyLL-0" />
        <mxCell id="ajOKWsYXh7jkw-FmMyLL-1" parent="ajOKWsYXh7jkw-FmMyLL-0" />
        <mxCell id="xVqj7HArOzXbkwn0XfoX-0" style="edgeStyle=orthogonalEdgeStyle;curved=0;rounded=1;sketch=0;orthogonalLoop=1;jettySize=auto;html=1;exitX=0.5;exitY=1;exitDx=0;exitDy=0;entryX=0.5;entryY=0;entryDx=0;entryDy=0;fontColor=#143642;strokeColor=#A8201A;fillColor=#FAE5C7;" parent="ajOKWsYXh7jkw-FmMyLL-1" source="xVqj7HArOzXbkwn0XfoX-1" edge="1">
          <mxGeometry relative="1" as="geometry">
            <mxPoint x="425.3699999999999" y="170" as="targetPoint" />
          </mxGeometry>
        </mxCell>
        <mxCell id="xVqj7HArOzXbkwn0XfoX-1" value="&lt;div&gt;RecvFunc&lt;/div&gt;&lt;div&gt;&lt;br&gt;&lt;/div&gt;&lt;div&gt;OUT: &lt;i&gt;&lt;span style=&quot;font-weight: normal&quot;&gt;msg&lt;/span&gt;&lt;/i&gt;&lt;br&gt;&lt;/div&gt;" style="ellipse;whiteSpace=wrap;html=1;fillColor=#FAE5C7;strokeColor=#0F8B8D;fontColor=#143642;fontStyle=1" parent="ajOKWsYXh7jkw-FmMyLL-1" vertex="1">
          <mxGeometry x="362.37" y="80" width="125.5" height="50" as="geometry" />
        </mxCell>
        <mxCell id="xVqj7HArOzXbkwn0XfoX-2" value="Returns &lt;i&gt;msg&lt;/i&gt;" style="edgeStyle=orthogonalEdgeStyle;curved=0;rounded=1;sketch=0;orthogonalLoop=1;jettySize=auto;html=1;fontColor=#143642;strokeColor=#A8201A;fillColor=#FAE5C7;entryX=0.5;entryY=0;entryDx=0;entryDy=0;exitX=0.5;exitY=1;exitDx=0;exitDy=0;" parent="ajOKWsYXh7jkw-FmMyLL-1" source="xVqj7HArOzXbkwn0XfoX-3" target="xVqj7HArOzXbkwn0XfoX-4" edge="1">
          <mxGeometry relative="1" as="geometry">
            <mxPoint x="425.25" y="269.9999999999999" as="sourcePoint" />
            <mxPoint x="425" y="320" as="targetPoint" />
          </mxGeometry>
        </mxCell>
        <mxCell id="xVqj7HArOzXbkwn0XfoX-3" value="&lt;b&gt;TCPReceive(&lt;/b&gt;&lt;i&gt;sockfd&lt;/i&gt;&lt;b&gt;)&lt;/b&gt;" style="shape=process;whiteSpace=wrap;html=1;backgroundOutline=1;rounded=0;sketch=0;fontColor=#143642;strokeColor=#0F8B8D;fillColor=#FAE5C7;" parent="ajOKWsYXh7jkw-FmMyLL-1" vertex="1">
          <mxGeometry x="345" y="170" width="160" height="40" as="geometry" />
        </mxCell>
        <mxCell id="xVqj7HArOzXbkwn0XfoX-4" value="End" style="ellipse;whiteSpace=wrap;html=1;fillColor=#FAE5C7;strokeColor=#0F8B8D;fontColor=#143642;fontStyle=1" parent="ajOKWsYXh7jkw-FmMyLL-1" vertex="1">
          <mxGeometry x="396" y="260" width="58.25" height="40" as="geometry" />
        </mxCell>
      </root>
    </mxGraphModel>
  </diagram>
  <diagram id="GCx22StDLpc6vgn4ESjC" name="sendFunc">
    <mxGraphModel dx="375" dy="212" grid="1" gridSize="10" guides="1" tooltips="1" connect="1" arrows="1" fold="1" page="1" pageScale="1" pageWidth="850" pageHeight="1100" math="0" shadow="0">
      <root>
        <mxCell id="8K9KiGm8iUB3ZnxoUxFl-0" />
        <mxCell id="8K9KiGm8iUB3ZnxoUxFl-1" parent="8K9KiGm8iUB3ZnxoUxFl-0" />
        <mxCell id="nPrS0MlecOmRYFjH9Bgv-0" style="edgeStyle=orthogonalEdgeStyle;curved=0;rounded=1;sketch=0;orthogonalLoop=1;jettySize=auto;html=1;exitX=0.5;exitY=1;exitDx=0;exitDy=0;entryX=0.5;entryY=0;entryDx=0;entryDy=0;fontColor=#143642;strokeColor=#A8201A;fillColor=#FAE5C7;" parent="8K9KiGm8iUB3ZnxoUxFl-1" source="nPrS0MlecOmRYFjH9Bgv-1" edge="1">
          <mxGeometry relative="1" as="geometry">
            <mxPoint x="425.3700000000001" y="170" as="targetPoint" />
          </mxGeometry>
        </mxCell>
        <mxCell id="nPrS0MlecOmRYFjH9Bgv-1" value="&lt;div&gt;SendFunc&lt;/div&gt;&lt;div&gt;&lt;br&gt;&lt;/div&gt;&lt;div&gt;IN:&lt;i&gt; &lt;span style=&quot;font-weight: normal&quot;&gt;msg&lt;/span&gt;&lt;/i&gt;&lt;span style=&quot;font-weight: normal&quot;&gt;&lt;/span&gt;&lt;br&gt;&lt;/div&gt;" style="ellipse;whiteSpace=wrap;html=1;fillColor=#FAE5C7;strokeColor=#0F8B8D;fontColor=#143642;fontStyle=1" parent="8K9KiGm8iUB3ZnxoUxFl-1" vertex="1">
          <mxGeometry x="362.37" y="80" width="125.5" height="50" as="geometry" />
        </mxCell>
        <mxCell id="nPrS0MlecOmRYFjH9Bgv-2" value="" style="edgeStyle=orthogonalEdgeStyle;curved=0;rounded=1;sketch=0;orthogonalLoop=1;jettySize=auto;html=1;fontColor=#143642;strokeColor=#A8201A;fillColor=#FAE5C7;entryX=0.5;entryY=0;entryDx=0;entryDy=0;exitX=0.5;exitY=1;exitDx=0;exitDy=0;" parent="8K9KiGm8iUB3ZnxoUxFl-1" source="nPrS0MlecOmRYFjH9Bgv-3" target="nPrS0MlecOmRYFjH9Bgv-4" edge="1">
          <mxGeometry relative="1" as="geometry">
            <mxPoint x="425.25" y="269.9999999999999" as="sourcePoint" />
            <mxPoint x="425" y="320" as="targetPoint" />
          </mxGeometry>
        </mxCell>
        <mxCell id="nPrS0MlecOmRYFjH9Bgv-3" value="&lt;b&gt;TCPSend(&lt;/b&gt;&lt;i&gt;sockfd, msg&lt;/i&gt;&lt;b&gt;)&lt;/b&gt;" style="shape=process;whiteSpace=wrap;html=1;backgroundOutline=1;rounded=0;sketch=0;fontColor=#143642;strokeColor=#0F8B8D;fillColor=#FAE5C7;" parent="8K9KiGm8iUB3ZnxoUxFl-1" vertex="1">
          <mxGeometry x="337.62" y="170" width="175" height="40" as="geometry" />
        </mxCell>
        <mxCell id="nPrS0MlecOmRYFjH9Bgv-4" value="End" style="ellipse;whiteSpace=wrap;html=1;fillColor=#FAE5C7;strokeColor=#0F8B8D;fontColor=#143642;fontStyle=1" parent="8K9KiGm8iUB3ZnxoUxFl-1" vertex="1">
          <mxGeometry x="396" y="240" width="58.25" height="40" as="geometry" />
        </mxCell>
      </root>
    </mxGraphModel>
  </diagram>
</mxfile>
